# Blender 4.1.1
# www.blender.org
mtllib object2.mtl
o 立方体
v -10.674559 6.418799 -2.431279
v -10.674559 5.805538 -2.781500
v -10.674559 3.107189 -2.116081
v -10.674559 0.613261 -2.781500
v -10.674559 0.000000 -2.396257
v -10.674559 0.000000 0.000000
v -8.569009 6.418799 -1.215640
v -8.265709 5.805538 -1.390750
v -8.841979 3.107189 -1.058040
v -8.265709 0.613261 -1.390750
v -8.599339 0.000000 -1.198129
v -8.569009 6.418799 1.215640
v -8.265709 5.805538 1.390750
v -8.841979 3.107189 1.058041
v -8.265709 0.613261 1.390750
v -8.599339 0.000000 1.198129
v -10.674559 6.418799 0.000000
v -10.674560 6.418799 2.431279
v -10.674559 5.805538 2.781500
v -10.674559 3.107189 2.116081
v -10.674559 0.613261 2.781500
v -10.674559 0.000000 2.396257
v -12.780108 6.418799 1.215639
v -13.083409 5.805538 1.390750
v -12.507139 3.107189 1.058040
v -13.083409 0.613261 1.390750
v -12.749779 0.000000 1.198128
v -12.780107 6.418799 -1.215641
v -13.083408 5.805538 -1.390751
v -12.507138 3.107189 -1.058041
v -13.083408 0.613261 -1.390751
v -12.749779 0.000000 -1.198129
vn -0.0000 1.0000 -0.0000
vn 0.4392 -0.4779 -0.7607
vn -0.0000 -1.0000 -0.0000
vn 0.4872 0.2251 -0.8438
vn 0.4890 -0.2089 -0.8469
vn 0.4482 0.4433 -0.7763
vn 0.9743 0.2251 -0.0000
vn 0.9779 -0.2089 -0.0000
vn 0.8964 0.4433 -0.0000
vn 0.8784 -0.4779 -0.0000
vn 0.4872 0.2251 0.8438
vn 0.4890 -0.2089 0.8469
vn 0.4482 0.4433 0.7763
vn 0.4392 -0.4779 0.7607
vn -0.4872 0.2251 0.8438
vn -0.4890 -0.2089 0.8469
vn -0.4482 0.4433 0.7763
vn -0.4392 -0.4779 0.7607
vn -0.9743 0.2251 -0.0000
vn -0.9779 -0.2089 -0.0000
vn -0.8964 0.4433 -0.0000
vn -0.8784 -0.4779 -0.0000
vn -0.4890 -0.2089 -0.8469
vn -0.4482 0.4433 -0.7763
vn -0.4392 -0.4779 -0.7607
vn -0.4872 0.2251 -0.8438
vt 0.000000 0.000000
s 0
f 1/1/1 17/1/1 7/1/1
f 4/1/2 11/1/2 5/1/2
f 6/1/3 5/1/3 11/1/3
f 4/1/4 9/1/4 10/1/4
f 2/1/5 9/1/5 3/1/5
f 1/1/6 8/1/6 2/1/6
f 10/1/7 14/1/7 15/1/7
f 8/1/8 14/1/8 9/1/8
f 7/1/9 13/1/9 8/1/9
f 7/1/1 17/1/1 12/1/1
f 10/1/10 16/1/10 11/1/10
f 6/1/3 11/1/3 16/1/3
f 14/1/11 21/1/11 15/1/11
f 13/1/12 20/1/12 14/1/12
f 12/1/13 19/1/13 13/1/13
f 12/1/1 17/1/1 18/1/1
f 15/1/14 22/1/14 16/1/14
f 6/1/3 16/1/3 22/1/3
f 20/1/15 26/1/15 21/1/15
f 20/1/16 24/1/16 25/1/16
f 18/1/17 24/1/17 19/1/17
f 18/1/1 17/1/1 23/1/1
f 21/1/18 27/1/18 22/1/18
f 6/1/3 22/1/3 27/1/3
f 25/1/19 31/1/19 26/1/19
f 24/1/20 30/1/20 25/1/20
f 23/1/21 29/1/21 24/1/21
f 23/1/1 17/1/1 28/1/1
f 26/1/22 32/1/22 27/1/22
f 6/1/3 27/1/3 32/1/3
f 29/1/23 3/1/23 30/1/23
f 28/1/24 2/1/24 29/1/24
f 28/1/1 17/1/1 1/1/1
f 31/1/25 5/1/25 32/1/25
f 6/1/3 32/1/3 5/1/3
f 30/1/26 4/1/26 31/1/26
f 4/1/2 10/1/2 11/1/2
f 4/1/4 3/1/4 9/1/4
f 2/1/5 8/1/5 9/1/5
f 1/1/6 7/1/6 8/1/6
f 10/1/7 9/1/7 14/1/7
f 8/1/8 13/1/8 14/1/8
f 7/1/9 12/1/9 13/1/9
f 10/1/10 15/1/10 16/1/10
f 14/1/11 20/1/11 21/1/11
f 13/1/12 19/1/12 20/1/12
f 12/1/13 18/1/13 19/1/13
f 15/1/14 21/1/14 22/1/14
f 20/1/15 25/1/15 26/1/15
f 20/1/16 19/1/16 24/1/16
f 18/1/17 23/1/17 24/1/17
f 21/1/18 26/1/18 27/1/18
f 25/1/19 30/1/19 31/1/19
f 24/1/20 29/1/20 30/1/20
f 23/1/21 28/1/21 29/1/21
f 26/1/22 31/1/22 32/1/22
f 29/1/23 2/1/23 3/1/23
f 28/1/24 1/1/24 2/1/24
f 31/1/25 4/1/25 5/1/25
f 30/1/26 3/1/26 4/1/26
